<svg xmlns="http://www.w3.org/2000/svg" version="1.0" viewBox="0 0 4500 4500"><path fill="#000" fill-opacity=".1" d="M2830 1202.4c0 .2.8 1 1.8 1.7 1.5 1.3 1.6 1.2.3-.4s-2.1-2.1-2.1-1.3m-1012.1 11.3c-1.3 1.6-1.2 1.7.4.4.9-.7 1.7-1.5 1.7-1.7 0-.8-.8-.3-2.1 1.3m1036.1 11.8c4.7 4.7 8.7 8.5 9 8.5.2 0-3.3-3.8-8-8.5s-8.7-8.5-9-8.5c-.2 0 3.3 3.8 8 8.5m-1049.6.7-2.9 3.3 3.3-2.9c3-2.8 3.7-3.6 2.9-3.6-.2 0-1.6 1.5-3.3 3.2m493.5 1.5c-1.3 1.6-1.2 1.7.4.4s2.1-2.1 1.3-2.1c-.2 0-1 .8-1.7 1.7m-508.4 13.5-4 4.3 4.3-4c2.3-2.1 4.2-4 4.2-4.2 0-.8-.9 0-4.5 3.9m1086.5 7.2c0 .2.8 1 1.8 1.7 1.5 1.3 1.6 1.2.3-.4s-2.1-2.1-2.1-1.3m-575.5 19.8-11 11.3 11.3-11c6.1-6 11.2-11.1 11.2-11.2 0-.8-1.3.5-11.5 10.9m-46.6 3.5c-1.3 1.6-1.2 1.7.4.4s2.1-2.1 1.3-2.1c-.2 0-1 .8-1.7 1.7m-10 11c-1.3 1.6-1.2 1.7.4.4s2.1-2.1 1.3-2.1c-.2 0-1 .8-1.7 1.7m-324.8 45.9c0 1.1.3 1.4.6.6.3-.7.2-1.6-.1-1.9-.3-.4-.6.2-.5 1.3m-.8 21.9c0 2.2.2 3 .4 1.7.2-1.2.2-3 0-4-.3-.9-.5.1-.4 2.3m660 49.2c1.5.2 3.7.2 5 0 1.2-.2 0-.4-2.8-.4-2.7 0-3.8.2-2.2.4m50 0c1.5.2 3.7.2 5 0 1.2-.2 0-.4-2.8-.4-2.7 0-3.8.2-2.2.4m-73 1c.9.2 2.3.2 3 0 .6-.3-.1-.5-1.8-.5-1.6 0-2.2.2-1.2.5m97.5 0c.6.2 1.8.2 2.5 0 .6-.3.1-.5-1.3-.5s-1.9.2-1.2.5m-113 1c.6.2 1.8.2 2.5 0 .6-.3.1-.5-1.3-.5s-1.9.2-1.2.5m129 0c.7.3 1.6.2 1.9-.1.4-.3-.2-.6-1.3-.5-1.1 0-1.4.3-.6.6m12 1c.7.3 1.6.2 1.9-.1.4-.3-.2-.6-1.3-.5-1.1 0-1.4.3-.6.6m-166 1c.7.3 1.6.2 1.9-.1.4-.3-.2-.6-1.3-.5-1.1 0-1.4.3-.6.6m177 0c.7.3 1.6.2 1.9-.1.4-.3-.2-.6-1.3-.5-1.1 0-1.4.3-.6.6m-805.6 18.8c0 1.6.2 2.2.5 1.2.2-.9.2-2.3 0-3-.3-.6-.5.1-.5 1.8m32 3.5c0 1.9.2 2.7.5 1.7.2-.9.2-2.5 0-3.5-.3-.9-.5-.1-.5 1.8m254.4 12.2c-4.6 8.2-20.8 39.9-20.5 40.2.2.2 12.1 2.4 26.5 4.9l26 4.6 20-8.3c10.9-4.6 29.2-11.9 40.6-16.2 11.5-4.4 20.8-8.1 20.8-8.4s-24-4.7-53.2-9.9c-29.3-5.1-54.4-9.5-55.8-9.8-2-.3-2.9.2-4.4 2.9m-285.5 1.4c0 1.1.3 1.4.6.6.3-.7.2-1.6-.1-1.9-.3-.4-.6.2-.5 1.3m32.1 6.4c0 1.4.2 1.9.5 1.2.2-.6.2-1.8 0-2.5-.3-.6-.5-.1-.5 1.3m-31.1 6.6c0 1.1.3 1.4.6.6.3-.7.2-1.6-.1-1.9-.3-.4-.6.2-.5 1.3m124.4 192.4c-29.2 16.9-43.2 24.5-43.7 23.7-1.7-2.6-.4 1 7.1 20.9 9.6 25.5 12.7 32.9 13.8 32.9.4 0 10.1-5.3 21.4-11.9l20.6-11.8 4.8-16.7c2.6-9.1 8-26.8 12-39.4 4-12.5 7.2-22.7 7.1-22.7s-19.4 11.3-43.1 25m621.1 96.6c4.4 29.1 11.3 88.7 11.5 99.3.1 3.1.4 4.5.6 3.2.4-2.1 18.5 15.6 139.9 137 138.6 138.5 139.5 139.4 138.8 134.9-3.6-25-16.1-73.4-27.9-108.5l-5.4-15.9-129.4-129.4-129.4-129.4zm-927.6 46.9c1.3 1.4 2.6 2.5 2.8 2.5.3 0-.5-1.1-1.8-2.5s-2.6-2.5-2.8-2.5c-.3 0 .5 1.1 1.8 2.5m-29.5 14.5c1 1.1 2 2 2.3 2s-.3-.9-1.3-2-2-2-2.3-2 .3.9 1.3 2m52.5 8.5c1.3 1.4 2.6 2.5 2.8 2.5.3 0-.5-1.1-1.8-2.5s-2.6-2.5-2.8-2.5c-.3 0 .5 1.1 1.8 2.5m-18 25.9c0 .2.8 1 1.8 1.7 1.5 1.3 1.6 1.2.3-.4s-2.1-2.1-2.1-1.3m935.3 19.6c0 2.5.2 3.5.4 2.2.2-1.2.2-3.2 0-4.5-.2-1.2-.4-.2-.4 2.3m1 23c0 4.7.2 6.6.4 4.2.2-2.3.2-6.1 0-8.5-.2-2.3-.4-.4-.4 4.3m-593.1 32.2c-1.1 1.8-10.6 18.4-21.2 36.8s-19.8 33.8-20.3 34.1c-1 .7 32.5 11.8 49.3 16.5 5.2 1.4 10.7 2.9 12.2 3.4 2.7.9 3 .6 8.4-8.8 13.6-23.2 15.6-26.7 15.7-27.2.1-.4-5.5-8.2-12.4-17.6-6.9-9.3-16.1-21.9-20.4-27.9-4.2-6.1-8.1-11.4-8.5-11.8-.4-.5-1.7.6-2.8 2.5m593.1 19.8c0 3 .2 4.3.4 2.7.2-1.5.2-3.9 0-5.5-.2-1.5-.4-.2-.4 2.8m-1.1 27.5c0 1.6.2 2.2.5 1.2.2-.9.2-2.3 0-3-.3-.6-.5.1-.5 1.8m-1 17.5c0 1.4.2 1.9.5 1.2.2-.6.2-1.8 0-2.5-.3-.6-.5-.1-.5 1.3m-106.7 13.1c-7.1 7.9-23.7 25.4-37 38.9-13.2 13.5-22.1 22.7-19.8 20.5l4.3-3.9.2 164.9.3 165 6.6-10c21-31.9 39.6-67 53.3-100.7l5.6-13.7-.2-137.7-.3-137.7zm105.7 1.9c0 1.4.2 1.9.5 1.2.2-.6.2-1.8 0-2.5-.3-.6-.5-.1-.5 1.3m-1.1 13.6c0 1.1.3 1.4.6.6.3-.7.2-1.6-.1-1.9-.3-.4-.6.2-.5 1.3m-1 12c0 1.1.3 1.4.6.6.3-.7.2-1.6-.1-1.9-.3-.4-.6.2-.5 1.3m-174.7 44.6-2.9 3.3 3.3-2.9c3-2.8 3.7-3.6 2.9-3.6-.2 0-1.6 1.5-3.3 3.2m-263.6.5c.7.3 1.6.2 1.9-.1.4-.3-.2-.6-1.3-.5-1.1 0-1.4.3-.6.6m14 2c.7.3 1.6.2 1.9-.1.4-.3-.2-.6-1.3-.5-1.1 0-1.4.3-.6.6m8 1c.6.2 1.8.2 2.5 0 .6-.3.1-.5-1.3-.5s-1.9.2-1.2.5m8 1c.6.2 1.8.2 2.5 0 .6-.3.1-.5-1.3-.5s-1.9.2-1.2.5m9.5 1c.9.2 2.3.2 3 0 .6-.3-.1-.5-1.8-.5-1.6 0-2.2.2-1.2.5m10 1c.9.2 2.3.2 3 0 .6-.3-.1-.5-1.8-.5-1.6 0-2.2.2-1.2.5m5.5 53.1-.3 53 5.7-2.9c12.4-6.2 33.1-18.6 49.1-29.2l16.7-11.2V2073h-7.7c-7.4 0-42.1-2.2-56.5-3.6l-6.8-.7zm199.1-51.1c-1.3 1.6-1.2 1.7.4.4s2.1-2.1 1.3-2.1c-.2 0-1 .8-1.7 1.7m-16 14c-1.3 1.6-1.2 1.7.4.4s2.1-2.1 1.3-2.1c-.2 0-1 .8-1.7 1.7m-6 5c-1.3 1.6-1.2 1.7.4.4s2.1-2.1 1.3-2.1c-.2 0-1 .8-1.7 1.7m489.3 35.3c0 1.4.2 1.9.5 1.2.2-.6.2-1.8 0-2.5-.3-.6-.5-.1-.5 1.3m1 9c0 1.4.2 1.9.5 1.2.2-.6.2-1.8 0-2.5-.3-.6-.5-.1-.5 1.3m1 9c0 1.4.2 1.9.5 1.2.2-.6.2-1.8 0-2.5-.3-.6-.5-.1-.5 1.3m.9 7.6c0 1.1.3 1.4.6.6.3-.7.2-1.6-.1-1.9-.3-.4-.6.2-.5 1.3m3.2 23.4c0 3.6.2 5 .4 3.2.2-1.7.2-4.7 0-6.5-.2-1.7-.4-.3-.4 3.3m-27.4 57.7c-1.3 1.6-1.2 1.7.4.4s2.1-2.1 1.3-2.1c-.2 0-1 .8-1.7 1.7m-22 25c-1.3 1.6-1.2 1.7.4.4s2.1-2.1 1.3-2.1c-.2 0-1 .8-1.7 1.7m-915.1 10c.7.3 1.6.2 1.9-.1.4-.3-.2-.6-1.3-.5-1.1 0-1.4.3-.6.6m-15.5 1c.9.2 2.3.2 3 0 .6-.3-.1-.5-1.8-.5-1.6 0-2.2.2-1.2.5m-82.5 1c2.3.2 5.9.2 8 0 2-.2.1-.4-4.3-.4s-6.1.2-3.7.4m53 0c1.7.2 4.7.2 6.5 0 1.7-.2.3-.4-3.3-.4s-5 .2-3.2.4m943.7 5.5-4 4.3 4.3-4c3.9-3.6 4.7-4.5 3.9-4.5-.2 0-2.1 1.9-4.2 4.2m-18 18-4 4.3 4.3-4c3.9-3.6 4.7-4.5 3.9-4.5-.2 0-2.1 1.9-4.2 4.2m-16.6 15.5c-1.3 1.6-1.2 1.7.4.4s2.1-2.1 1.3-2.1c-.2 0-1 .8-1.7 1.7m-998.9 3.7c0 .2.8 1 1.8 1.7 1.5 1.3 1.6 1.2.3-.4s-2.1-2.1-2.1-1.3m606.9 125.3c-1.3 1.6-1.2 1.7.4.4s2.1-2.1 1.3-2.1c-.2 0-1 .8-1.7 1.7m-7.5 8.5-1.9 2.3 2.3-1.9c2.1-1.8 2.7-2.6 1.9-2.6-.2 0-1.2 1-2.3 2.2m-8.5 9.5-2.4 2.8 2.8-2.4c2.5-2.3 3.2-3.1 2.4-3.1-.2 0-1.4 1.2-2.8 2.7m-12.9 13.8c-2.4 2.5-4.2 4.5-3.9 4.5s2.5-2 4.9-4.5 4.2-4.5 3.9-4.5-2.5 2-4.9 4.5m-11.6 11.7-1.9 2.3 2.3-1.9c2.1-1.8 2.7-2.6 1.9-2.6-.2 0-1.2 1-2.3 2.2m-132.6 20.5c.7.3 1.6.2 1.9-.1.4-.3-.2-.6-1.3-.5-1.1 0-1.4.3-.6.6m13 1c.6.2 1.8.2 2.5 0 .6-.3.1-.5-1.3-.5s-1.9.2-1.2.5m20 1c1.2.2 3.2.2 4.5 0 1.2-.2.2-.4-2.3-.4s-3.5.2-2.2.4m45 0c1.2.2 3.2.2 4.5 0 1.2-.2.2-.4-2.3-.4s-3.5.2-2.2.4m-1610.9 601c-1.3 1.6-1.2 1.7.4.4s2.1-2.1 1.3-2.1c-.2 0-1 .8-1.7 1.7m801.1 5.8c3 3 5.7 5.5 5.9 5.5.3 0-1.9-2.5-4.9-5.5s-5.7-5.5-5.9-5.5c-.3 0 1.9 2.5 4.9 5.5m-813.1 6.2c-1.3 1.6-1.2 1.7.4.4.9-.7 1.7-1.5 1.7-1.7 0-.8-.8-.3-2.1 1.3m260.6 50.3c2.1 2.2 4.1 4 4.4 4s-1.3-1.8-3.4-4-4.1-4-4.4-4 1.3 1.8 3.4 4m219.5 251.4c0 .2.8 1 1.8 1.7 1.5 1.3 1.6 1.2.3-.4s-2.1-2.1-2.1-1.3m-474 9.1c3.5 3.6 6.7 6.5 6.9 6.5.3 0-2.4-2.9-5.9-6.5s-6.7-6.5-6.9-6.5c-.3 0 2.4 2.9 5.9 6.5m807.4-.3-2.9 3.3 3.3-2.9c1.7-1.7 3.2-3.1 3.2-3.3 0-.8-.8-.1-3.6 2.9"/><path fill="#000" fill-opacity=".2" d="M2309.8 1010.7c1.2.2 3 .2 4 0 .9-.3-.1-.5-2.3-.4-2.2 0-3 .2-1.7.4m37.5 0c.9.2 2.5.2 3.5 0 .9-.3.1-.5-1.8-.5s-2.7.2-1.7.5m-57.5 1c.7.3 1.6.2 1.9-.1.4-.3-.2-.6-1.3-.5-1.1 0-1.4.3-.6.6m77 0c.7.3 1.6.2 1.9-.1.4-.3-.2-.6-1.3-.5-1.1 0-1.4.3-.6.6m-65.9 213c-1.3 1.6-1.2 1.7.4.4s2.1-2.1 1.3-2.1c-.2 0-1 .8-1.7 1.7m-25.9 25-11.5 11.8 11.8-11.5c10.9-10.7 12.2-12 11.4-12-.1 0-5.4 5.3-11.7 11.7m47.9-3c-1.3 1.6-1.2 1.7.4.4s2.1-2.1 1.3-2.1c-.2 0-1 .8-1.7 1.7m-72 28c-1.3 1.6-1.2 1.7.4.4s2.1-2.1 1.3-2.1c-.2 0-1 .8-1.7 1.7m29 15c-1.3 1.6-1.2 1.7.4.4s2.1-2.1 1.3-2.1c-.2 0-1 .8-1.7 1.7m-392.8 44.9c0 1.1.3 1.4.6.6.3-.7.2-1.6-.1-1.9-.3-.4-.6.2-.5 1.3m-.9 16.4c0 1.4.2 1.9.5 1.2.2-.6.2-1.8 0-2.5-.3-.6-.5-.1-.5 1.3m308.5 50.3c-8.2 13.1-19.6 33-19.2 33.5.1.1 25.2 4.6 55.7 10l55.5 9.8 22.9-7.6c25.6-8.4 46.7-14.6 68.6-19.9l14.7-3.6-93.2-16.4c-51.3-9-94.1-16.8-95.3-17.2-1.8-.6-3 .7-9.7 11.4m376.6-1.6c.9.2 2.5.2 3.5 0 .9-.3.1-.5-1.8-.5s-2.7.2-1.7.5m65 0c.9.2 2.5.2 3.5 0 .9-.3.1-.5-1.8-.5s-2.7.2-1.7.5m-85.5 1c.6.2 1.8.2 2.5 0 .6-.3.1-.5-1.3-.5s-1.9.2-1.2.5m106 0c.6.2 1.8.2 2.5 0 .6-.3.1-.5-1.3-.5s-1.9.2-1.2.5m-122.5 1c.9.2 2.5.2 3.5 0 .9-.3.1-.5-1.8-.5s-2.7.2-1.7.5m137.5 0c.7.3 1.6.2 1.9-.1.4-.3-.2-.6-1.3-.5-1.1 0-1.4.3-.6.6m-149 1c.7.3 1.6.2 1.9-.1.4-.3-.2-.6-1.3-.5-1.1 0-1.4.3-.6.6m161 0c.7.3 1.6.2 1.9-.1.4-.3-.2-.6-1.3-.5-1.1 0-1.4.3-.6.6m-764.6 39.3c0 1.4.2 1.9.5 1.2.2-.6.2-1.8 0-2.5-.3-.6-.5-.1-.5 1.3m.9 15.6c0 1.1.3 1.4.6.6.3-.7.2-1.6-.1-1.9-.3-.4-.6.2-.5 1.3m99 116.4c-37.1 21.4-67.8 38.7-68.2 38.4-1.2-.7 14.1 47.5 17.4 54.8l1.2 2.7 43-24.9c23.6-13.6 43.1-25.4 43.3-26.2 2.8-9.2 22.1-60.4 28.5-75.6 1.9-4.5 3.2-8.2 2.9-8.2-.4 0-31 17.6-68.1 39m-437.8 166c0 3 .2 4.3.4 2.7.2-1.5.2-3.9 0-5.5-.2-1.5-.4-.2-.4 2.8m.8 18.6c0 1.1.3 1.4.6.6.3-.7.2-1.6-.1-1.9-.3-.4-.6.2-.5 1.3m2 27c0 1.1.3 1.4.6.6.3-.7.2-1.6-.1-1.9-.3-.4-.6.2-.5 1.3m133.4 14.4c4.9 4.9 9.2 9 9.5 9 .2 0-3.6-4.1-8.5-9-4.9-5-9.2-9-9.5-9-.2 0 3.6 4 8.5 9m21.5 20.4c0 .2.8 1 1.8 1.7 1.5 1.3 1.6 1.2.3-.4s-2.1-2.1-2.1-1.3m907.7 36.1c.4 8.2.8 31.5.8 51.8 0 20.2.2 36.2.4 35.6s61.2 59.7 135.6 134.1l135.3 135.3 2.5-4.4c9.7-16.6 11.6-29.8 7.8-54.1-1.1-6.8-2.5-17.3-3.2-23.4l-1.1-11.1-139.4-139.4-139.5-139.4zm-632.9-11.8c-.4 1.4-54.1 95.3-62.9 109.9l-1.9 3.1 14.5 6.2c16 6.8 43.6 17.6 47.5 18.5 2.4.6 3.5-1.2 23.7-36.3l21.3-37-12.8-19.8c-7.1-10.9-15.9-25-19.7-31.3-9.5-16-9.1-15.5-9.7-13.3m632.4 119.8c0 1.6.2 2.2.5 1.2.2-.9.2-2.3 0-3-.3-.6-.5.1-.5 1.8m-1 16.5c0 1.4.2 1.9.5 1.2.2-.6.2-1.8 0-2.5-.3-.6-.5-.1-.5 1.3m-1.1 14.6c0 1.1.3 1.4.6.6.3-.7.2-1.6-.1-1.9-.3-.4-.6.2-.5 1.3m-1 13c0 1.1.3 1.4.6.6.3-.7.2-1.6-.1-1.9-.3-.4-.6.2-.5 1.3m-1.9 20.4c0 1.4.2 1.9.5 1.2.2-.6.2-1.8 0-2.5-.3-.6-.5-.1-.5 1.3m-162.2 23.2c-14.8 13.5-38.3 34.1-49.8 43.5l-12.2 10.2v177.2c0 130.1-.3 177.5-1.1 178.5-.6.8-.9 1.4-.7 1.4.7 0 21.8-23.7 32.4-36.5 10.4-12.6 27.2-34.7 34.2-45.2l4.2-6.2-.2-164.4-.3-164.5zm-294 81.3v73.5l5.3-2.1c13.3-5.2 39.6-16.7 53.5-23.4l15.2-7.4v-52.5c0-49.4-.1-52.6-1.7-52.6-3.6 0-37.9-4.1-54-6.5-9.3-1.4-17.1-2.5-17.5-2.5-.5 0-.8 33.1-.8 73.5m221.9-19.8c-1.3 1.6-1.2 1.7.4.4s2.1-2.1 1.3-2.1c-.2 0-1 .8-1.7 1.7m504 109c-1.3 1.6-1.2 1.7.4.4s2.1-2.1 1.3-2.1c-.2 0-1 .8-1.7 1.7m-4 5c-1.3 1.6-1.2 1.7.4.4s2.1-2.1 1.3-2.1c-.2 0-1 .8-1.7 1.7m-6 7c-1.3 1.6-1.2 1.7.4.4s2.1-2.1 1.3-2.1c-.2 0-1 .8-1.7 1.7m-6 7c-1.3 1.6-1.2 1.7.4.4s2.1-2.1 1.3-2.1c-.2 0-1 .8-1.7 1.7m-16.5 18.5-1.9 2.3 2.3-1.9c1.2-1.1 2.2-2.1 2.2-2.3 0-.8-.8-.2-2.6 1.9m-902.6 5.5c.7.3 1.6.2 1.9-.1.4-.3-.2-.6-1.3-.5-1.1 0-1.4.3-.6.6m-153.5 2c1.5.2 3.7.2 5 0 1.2-.2 0-.4-2.8-.4-2.7 0-3.8.2-2.2.4m1034.2 15.5-5 5.3 5.3-5c4.8-4.6 5.7-5.5 4.9-5.5-.1 0-2.5 2.4-5.2 5.2m-898.7 16.5c.7.3 1.6.2 1.9-.1.4-.3-.2-.6-1.3-.5-1.1 0-1.4.3-.6.6m-13 1c.7.3 1.6.2 1.9-.1.4-.3-.2-.6-1.3-.5-1.1 0-1.4.3-.6.6m-18 1c.6.2 1.8.2 2.5 0 .6-.3.1-.5-1.3-.5s-1.9.2-1.2.5m-25 1c1.2.2 3 .2 4 0 .9-.3-.1-.5-2.3-.4-2.2 0-3 .2-1.7.4m501.1 173-2.4 2.8 2.8-2.4c2.5-2.3 3.2-3.1 2.4-3.1-.2 0-1.4 1.2-2.8 2.7m-11 10c-1.3 1.6-1.2 1.7.4.4.9-.7 1.7-1.5 1.7-1.7 0-.8-.8-.3-2.1 1.3m-109.1 16c.6.2 1.8.2 2.5 0 .6-.3.1-.5-1.3-.5s-1.9.2-1.2.5m75.5 0c.9.2 2.3.2 3 0 .6-.3-.1-.5-1.8-.5-1.6 0-2.2.2-1.2.5m-49.5 1c2.3.2 6.1.2 8.5 0 2.3-.2.4-.4-4.3-.4s-6.6.2-4.2.4m21 0c2.3.2 6.1.2 8.5 0 2.3-.2.4-.4-4.3-.4s-6.6.2-4.2.4m-1457 544c.6.2 1.8.2 2.5 0 .6-.3.1-.5-1.3-.5s-1.9.2-1.2.5m31 0c.6.2 1.8.2 2.5 0 .6-.3.1-.5-1.3-.5s-1.9.2-1.2.5m452 0c.7.3 1.6.2 1.9-.1.4-.3-.2-.6-1.3-.5-1.1 0-1.4.3-.6.6m31 0c.6.2 1.8.2 2.5 0 .6-.3.1-.5-1.3-.5s-1.9.2-1.2.5m316.7 221.3c0 117.4.1 165.5.2 106.7.2-58.7.2-154.7 0-213.5-.1-58.7-.2-10.6-.2 106.8m1712-174c0 21.7.1 30.6.2 19.7.2-10.8.2-28.6 0-39.5-.1-10.8-.2-1.9-.2 19.8m-2527.7 34.7c1.2.2 3 .2 4 0 .9-.3-.1-.5-2.3-.4-2.2 0-3 .2-1.7.4m483 0c1.2.2 3 .2 4 0 .9-.3-.1-.5-2.3-.4-2.2 0-3 .2-1.7.4m2245.7 178.8c0 95.7.1 134.7.2 86.7.2-48.1.2-126.4 0-174-.1-47.7-.2-8.4-.2 87.3m86 0c0 95.7.1 134.7.2 86.7.2-48.1.2-126.4 0-174-.1-47.7-.2-8.4-.2 87.3m-1913 37c0 64.3.1 90.5.2 58.2.2-32.4.2-85 0-117-.1-32-.2-5.6-.2 58.8M665.2 3255c0 1.4.2 1.9.5 1.2.2-.6.2-1.8 0-2.5-.3-.6-.5-.1-.5 1.3m571.9 1.6c0 1.1.3 1.4.6.6.3-.7.2-1.6-.1-1.9-.3-.4-.6.2-.5 1.3m-89.8 11.4c0 3.6.2 5 .4 3.2.2-1.7.2-4.7 0-6.5-.2-1.7-.4-.3-.4 3.3m89.8 11.6c0 1.1.3 1.4.6.6.3-.7.2-1.6-.1-1.9-.3-.4-.6.2-.5 1.3m-571.9 1.4c0 1.4.2 1.9.5 1.2.2-.6.2-1.8 0-2.5-.3-.6-.5-.1-.5 1.3m2086.1 101.7c25.1.2 66.3.2 91.5 0 25.1-.1 4.5-.2-45.8-.2s-70.9.1-45.7.2m-396 19c31.3.2 82.1.2 113 0 30.9-.1 5.4-.2-56.8-.2-62.1 0-87.4.1-56.2.2m-1480 88c.9.2 2.3.2 3 0 .6-.3-.1-.5-1.8-.5-1.6 0-2.2.2-1.2.5m26.5 0c.6.2 1.8.2 2.5 0 .6-.3.1-.5-1.3-.5s-1.9.2-1.2.5m456 0c.6.2 1.8.2 2.5 0 .6-.3.1-.5-1.3-.5s-1.9.2-1.2.5m26.5 0c.9.2 2.3.2 3 0 .6-.3-.1-.5-1.8-.5-1.6 0-2.2.2-1.2.5"/><path fill="#000" fill-opacity=".3" d="M2833 1205.4c0 .2.8 1 1.8 1.7 1.5 1.3 1.6 1.2.3-.4s-2.1-2.1-2.1-1.3m-1035.5 27.8-4 4.3 4.3-4c2.3-2.1 4.2-4 4.2-4.2 0-.8-.9 0-4.5 3.9m491.4 2.5-2.4 2.8 2.8-2.4c2.5-2.3 3.2-3.1 2.4-3.1-.2 0-1.4 1.2-2.8 2.7m583.1 8.7c0 .2.8 1 1.8 1.7 1.5 1.3 1.6 1.2.3-.4s-2.1-2.1-2.1-1.3m-552.6 5.8-1.9 2.3 2.3-1.9c2.1-1.8 2.7-2.6 1.9-2.6-.2 0-1.2 1-2.3 2.2m-58.5 13.5-2.4 2.8 2.8-2.4c2.5-2.3 3.2-3.1 2.4-3.1-.2 0-1.4 1.2-2.8 2.7m22.5 22.5-1.9 2.3 2.3-1.9c1.2-1.1 2.2-2.1 2.2-2.3 0-.8-.8-.2-2.6 1.9m-364.2 45.8c0 1.4.2 1.9.5 1.2.2-.6.2-1.8 0-2.5-.3-.6-.5-.1-.5 1.3m302.5 29.9c-14.2 19.9-19 27.2-18.4 27.7.3.3 42.7 8 94.3 17.1l93.9 16.6 10.5-2.2c39.9-8.3 80.4-14.7 112-17.7 9.6-.9 18.2-1.9 19-2.1 1.1-.4-204.9-37.4-295.7-53.1l-5.3-.9zm-303.4-2.4c0 2.7.2 3.8.4 2.2.2-1.5.2-3.7 0-5-.2-1.2-.4 0-.4 2.8m685.5 39.2c1.2.2 3 .2 4 0 .9-.3-.1-.5-2.3-.4-2.2 0-3 .2-1.7.4m-38.5 1c.9.2 2.5.2 3.5 0 .9-.3.1-.5-1.8-.5s-2.7.2-1.7.5m77 0c.9.2 2.5.2 3.5 0 .9-.3.1-.5-1.8-.5s-2.7.2-1.7.5m-95.5 1c.6.2 1.8.2 2.5 0 .6-.3.1-.5-1.3-.5s-1.9.2-1.2.5m114 0c.6.2 1.8.2 2.5 0 .6-.3.1-.5-1.3-.5s-1.9.2-1.2.5m14 1c.7.3 1.6.2 1.9-.1.4-.3-.2-.6-1.3-.5-1.1 0-1.4.3-.6.6m31 3c.7.3 1.6.2 1.9-.1.4-.3-.2-.6-1.3-.5-1.1 0-1.4.3-.6.6m-787.5 14.3c0 2.5.2 3.5.4 2.2.2-1.2.2-3.2 0-4.5-.2-1.2-.4-.2-.4 2.3m-32.1 9c0 1.4.2 1.9.5 1.2.2-.6.2-1.8 0-2.5-.3-.6-.5-.1-.5 1.3m.9 15.6c0 1.1.3 1.4.6.6.3-.7.2-1.6-.1-1.9-.3-.4-.6.2-.5 1.3m146.2 57.3c-52.9 30.6-96.4 55.8-96.7 56.1-.6.6 6.5 29.2 11.2 45.5 2.1 7 3.4 9.9 4.3 9.7.8-.2 31.6-17.8 68.4-39l67-38.7 7.5-17c4.1-9.3 13.7-29.3 21.2-44.4 7.6-15.1 13.6-27.6 13.5-27.6-.1-.1-43.5 24.8-96.4 55.4m-145.2-45.3c0 1.1.3 1.4.6.6.3-.7.2-1.6-.1-1.9-.3-.4-.6.2-.5 1.3m1075.4 23.2c77.3 43 74.3 41.7 68.9 29.7-1.5-3.3-4.1-9.6-5.8-14-2.4-6.1-3.6-8-5.1-8.2-2-.2-57.8-9.8-62.5-10.8-1.4-.3.7 1.2 4.5 3.3M1936 1849.2c-23.3 40.3-43.1 74.4-44.1 75.8l-1.7 2.6 15.1 8c16.8 8.9 43.6 21.8 44.2 21.3 1-1.2 63.9-110.7 64.3-112.1.2-.9-3.4-8.5-8.1-17-4.7-8.4-12.8-23.5-18-33.6l-9.4-18.3zm-242.5-28.2c2.1 2.2 4.1 4 4.4 4s-1.3-1.8-3.4-4-4.1-4-4.4-4 1.3 1.8 3.4 4m954.1 123.5c-.3.9-.6 5-.6 9 0 8.3-2.5 46.5-4.3 65.3l-1.2 12.2 116.5 116.5 116.4 116.4-2.4 2.9c-1.4 1.6.3-.1 3.8-3.7 13-13.5 42.2-48.1 42.2-49.9 0-.4-60.7-61.4-134.9-135.6-102.9-102.9-135-134.4-135.5-133.1m-533.8 195.4-.3 93.7 3.5-1.3c1.9-.7 10.9-3.9 20-7.2 9.1-3.2 23.6-8.7 32.3-12.1l15.7-6.1v-146.8l-3.2-.6c-23-3.8-62.1-11.5-66.5-13-1-.3-1.3 19.3-1.5 93.4m300.7-31.9c-.9 1.5-37.4 28.6-51.2 38l-12.3 8.4v347.7l7.3-.7c15.7-1.4 25.4-7.2 45.5-26.9l13.2-13.1v-177.2c0-110.1-.4-177.2-.9-177.2-.6 0-1.3.4-1.6 1m-451.7 158.7c.6.2 1.8.2 2.5 0 .6-.3.1-.5-1.3-.5s-1.9.2-1.2.5m-131 1c1.8.2 4.5.2 6 0s0-.4-3.3-.4-4.5.2-2.7.4m114.5 0c.9.2 2.3.2 3 0 .6-.3-.1-.5-1.8-.5-1.6 0-2.2.2-1.2.5m-56 1c5.3.2 14.1.2 19.5 0 5.3-.1.9-.3-9.8-.3s-15.1.2-9.7.3m945.1 34.5-2.9 3.3 3.3-2.9c3-2.8 3.7-3.6 2.9-3.6-.2 0-1.6 1.5-3.3 3.2m-1006.4 5.3c1.3 1.4 2.6 2.5 2.8 2.5.3 0-.5-1.1-1.8-2.5s-2.6-2.5-2.8-2.5c-.3 0 .5 1.1 1.8 2.5m441.8 192.2c.6.2 1.8.2 2.5 0 .6-.3.1-.5-1.3-.5s-1.9.2-1.2.5m16.5 1c.9.2 2.3.2 3 0 .6-.3-.1-.5-1.8-.5-1.6 0-2.2.2-1.2.5m35 1c.9.2 2.3.2 3 0 .6-.3-.1-.5-1.8-.5-1.6 0-2.2.2-1.2.5M1040.5 3102c1 1.1 2 2 2.3 2s-.3-.9-1.3-2-2-2-2.3-2 .3.9 1.3 2m175.4 1.7c-1.3 1.6-1.2 1.7.4.4s2.1-2.1 1.3-2.1c-.2 0-1 .8-1.7 1.7m-488.9 5.8c-2.4 2.5-4.2 4.5-3.9 4.5s2.5-2 4.9-4.5 4.2-4.5 3.9-4.5-2.5 2-4.9 4.5m322.5 1.5c1 1.1 2 2 2.3 2s-.3-.9-1.3-2-2-2-2.3-2 .3.9 1.3 2m414.5 51.4c0 .2.8 1 1.8 1.7 1.5 1.3 1.6 1.2.3-.4s-2.1-2.1-2.1-1.3m-670.6 3.8-2.9 3.3 3.3-2.9c3-2.8 3.7-3.6 2.9-3.6-.2 0-1.6 1.5-3.3 3.2m677.1 2.8c1 1.1 2 2 2.3 2s-.3-.9-1.3-2-2-2-2.3-2 .3.9 1.3 2M793 3369.5c1.3 1.4 2.6 2.5 2.8 2.5.3 0-.5-1.1-1.8-2.5s-2.6-2.5-2.8-2.5c-.3 0 .5 1.1 1.8 2.5m674.4.7-2.9 3.3 3.3-2.9c1.7-1.7 3.2-3.1 3.2-3.3 0-.8-.8-.1-3.6 2.9m-261.9 51.8c1 1.1 2 2 2.3 2s-.3-.9-1.3-2-2-2-2.3-2 .3.9 1.3 2m8.5 8.5c1.3 1.4 2.6 2.5 2.8 2.5.3 0-.5-1.1-1.8-2.5s-2.6-2.5-2.8-2.5c-.3 0 .5 1.1 1.8 2.5"/><path fill="#000" fill-opacity=".4" d="M2323.3 1010.7c4.3.2 11 .2 15 0 4-.1.5-.3-7.8-.3-8.2 0-11.5.2-7.2.3m-29.5 1c.7.3 1.6.2 1.9-.1.4-.3-.2-.6-1.3-.5-1.1 0-1.4.3-.6.6m70 0c.7.3 1.6.2 1.9-.1.4-.3-.2-.6-1.3-.5-1.1 0-1.4.3-.6.6m-70.4 219.5-1.9 2.3 2.3-1.9c1.2-1.1 2.2-2.1 2.2-2.3 0-.8-.8-.2-2.6 1.9m-37 37-1.9 2.3 2.3-1.9c1.2-1.1 2.2-2.1 2.2-2.3 0-.8-.8-.2-2.6 1.9m-10.5 11.5c-1.3 1.6-1.2 1.7.4.4s2.1-2.1 1.3-2.1c-.2 0-1 .8-1.7 1.7m42 2-2.4 2.8 2.8-2.4c2.5-2.3 3.2-3.1 2.4-3.1-.2 0-1.4 1.2-2.8 2.7m-12 13-2.4 2.8 2.8-2.4c2.5-2.3 3.2-3.1 2.4-3.1-.2 0-1.4 1.2-2.8 2.7m-50 8c-1.3 1.6-1.2 1.7.4.4s2.1-2.1 1.3-2.1c-.2 0-1 .8-1.7 1.7m32.4 12.5c-14 17-25.6 31.8-25.2 32.2.2.1 68.8 12.3 152.4 27l152 26.7 17-1.1c21.7-1.4 80.1-1.4 101.5 0 67.9 4.4 129.6 14.4 182 29.5 37.1 10.7 84 28.4 109.6 41.3 7.7 3.9 10 4.4 40 9.7 17.6 3.1 32.7 5.9 33.8 6.2 1.6.4 1.8.1 1.2-2.3-1-3.9-14.7-38.4-18.4-46.1-1.6-3.4-3.2-6-3.4-5.7-.4.4-720.9-126.1-729.6-128.1-1.3-.3-2-1-1.7-1.5 2.1-3.3-1.6.6-11.2 12.2m-196.6 102.2c-74.7 43.1-136.1 78.6-136.3 78.9-1 1 9.5 58.9 10.9 60.3.1.1 43.9-24.9 97.2-55.8l97.1-56 3.8-7.1c12.1-22.3 39.6-65.7 55.4-87.5 4.5-6.1 8-11.2 7.9-11.2s-61.3 35.3-136 78.4m-175.5-71.4c0 1.4.2 1.9.5 1.2.2-.6.2-1.8 0-2.5-.3-.6-.5-.1-.5 1.3m-.8 41c0 10.7.2 15.1.3 9.7.2-5.3.2-14.1 0-19.5-.1-5.3-.3-.9-.3 9.8m32.9 21c0 4.1.2 5.8.4 3.7.2-2 .2-5.4 0-7.5-.2-2-.4-.3-.4 3.8m.9 29.5c0 1.6.2 2.2.5 1.2.2-.9.2-2.3 0-3-.3-.6-.5.1-.5 1.8m.9 16.1c0 1.1.3 1.4.6.6.3-.7.2-1.6-.1-1.9-.3-.4-.6.2-.5 1.3m1 12c0 1.1.3 1.4.6.6.3-.7.2-1.6-.1-1.9-.3-.4-.6.2-.5 1.3m22.3 233.7c-.5 1.2-25.6 44.8-55.7 96.9s-54.7 95.1-54.7 95.7c0 1 27.5 18.4 45.4 28.6 11.2 6.4 12 6.7 13.2 5 .8-1 20.5-35.1 44-75.7l42.6-73.8-8.5-18.8c-7.4-16.3-19.6-45.1-23.8-56.4-1.4-3.5-1.5-3.5-2.5-1.5M1736 1817.4c0 .2.8 1 1.8 1.7 1.5 1.3 1.6 1.2.3-.4s-2.1-2.1-2.1-1.3m304 323.2v114.6l3.3-.7c8.7-1.8 30.5-8.1 49.3-14.3l20.9-6.8.3-93.5.2-93.5-11.7-2.8c-13.2-3.2-50.4-13.6-57.2-16-2.4-.9-4.5-1.6-4.7-1.6s-.4 51.6-.4 114.6m600.2-97.4c-1.6 15.1-5.7 41-9.3 58.8l-2.9 14.5 98.3 98.3c54 54 98.5 98.1 98.9 98 1.5-.6 37.7-35.9 43.4-42.3l5.8-6.6-116-116c-63.7-63.7-116.2-115.9-116.5-115.9s-1.1 5.1-1.7 11.2m-308.8 124.1c-10.5 6.7-25.9 16-34.2 20.7l-15.1 8.5-.1 152.1v152.1l6.8.6c3.7.4 19.2.7 34.5.7h27.7v-173.5c0-95.4-.1-173.5-.2-173.5-.2.1-8.9 5.6-19.4 12.3m-358.6 98.4c.7.3 1.6.2 1.9-.1.4-.3-.2-.6-1.3-.5-1.1 0-1.4.3-.6.6m-13 1c.7.3 1.6.2 1.9-.1.4-.3-.2-.6-1.3-.5-1.1 0-1.4.3-.6.6m-19.5 1c.9.2 2.5.2 3.5 0 .9-.3.1-.5-1.8-.5s-2.7.2-1.7.5m7.5 33c.7.3 1.6.2 1.9-.1.4-.3-.2-.6-1.3-.5-1.1 0-1.4.3-.6.6m870.1 18c-1.3 1.6-1.2 1.7.4.4s2.1-2.1 1.3-2.1c-.2 0-1 .8-1.7 1.7m-7 6c-1.3 1.6-1.2 1.7.4.4s2.1-2.1 1.3-2.1c-.2 0-1 .8-1.7 1.7m-551.1 175c.7.3 1.6.2 1.9-.1.4-.3-.2-.6-1.3-.5-1.1 0-1.4.3-.6.6"/><path fill="#000" fill-opacity=".5" d="M2577.3 1054.1c.1.5-2.5 2.5-5.8 4.4s-5.7 3.5-5.3 3.5c.7 0 16-5.9 16.5-6.4.1-.1-1.1-.7-2.7-1.3s-2.8-.7-2.7-.2m-451.2 261.2-206.3 119.2.6 12.5c.6 13.5 3.3 41.8 4.4 46.3l.7 2.7 135.9-78.5 135.9-78.4 6.1-7.8c24.4-31.6 44.2-54.1 73-82.8 20.5-20.4 29.8-29 54.1-49.9 1.7-1.4 2.8-2.5 2.5-2.5s-93.4 53.7-206.9 119.2m711.4-105.3c1 1.1 2 2 2.3 2s-.3-.9-1.3-2-2-2-2.3-2 .3.9 1.3 2m32 32c1 1.1 2 2 2.3 2s-.3-.9-1.3-2-2-2-2.3-2 .3.9 1.3 2m-566.6 24.7c-7.4 7.6-18.1 18.9-23.9 25.2-9.1 10-10.1 11.5-8.4 12.2 2.8 1.2 729.6 129 730.1 128.5 1.1-1.1-24.7-50.7-26.7-51.4-.6-.2-.8-.7-.5-1.2.3-.4-.3-.6-1.2-.4-1.4.4-653.3-114-662.2-116.1-2.3-.6-2.3-.8 2.5-5.6 2.6-2.7 4.6-4.9 4.3-4.9s-6.6 6.2-14 13.7m-383.7 70.8c0 1.6.2 2.2.5 1.2.2-.9.2-2.3 0-3-.3-.6-.5.1-.5 1.8m-.9 34c0 4.4.2 6.1.4 3.7.2-2.3.2-5.9 0-8-.2-2-.4-.1-.4 4.3m-33 38.5c0 2.5.2 3.5.4 2.2.2-1.2.2-3.2 0-4.5-.2-1.2-.4-.2-.4 2.3m.9 22c0 1.4.2 1.9.5 1.2.2-.6.2-1.8 0-2.5-.3-.6-.5-.1-.5 1.3m.9 14.6c0 1.1.3 1.4.6.6.3-.7.2-1.6-.1-1.9-.3-.4-.6.2-.5 1.3m-39.1 287c-37.7 65.3-68.6 119-68.8 119.4-.4.9 22.1 17.8 39.8 29.9 10.7 7.3 13.6 8.8 14.2 7.7.5-.9 25.6-44.4 55.8-96.7 30.3-52.4 55-95.6 55-96.2 0-.5-2.4-7.5-5.4-15.6-4.5-12.2-11-31.9-20.4-61.9l-1.7-5.2zm-265.9 21c0 1.1.3 1.4.6.6.3-.7.2-1.6-.1-1.9-.3-.4-.6.2-.5 1.3m1 14c0 1.1.3 1.4.6.6.3-.7.2-1.6-.1-1.9-.3-.4-.6.2-.5 1.3m1 14c0 1.1.3 1.4.6.6.3-.7.2-1.6-.1-1.9-.3-.4-.6.2-.5 1.3m148.9 31.8c0 .2.8 1 1.8 1.7 1.5 1.3 1.6 1.2.3-.4s-2.1-2.1-2.1-1.3m26 23c0 .2.8 1 1.8 1.7 1.5 1.3 1.6 1.2.3-.4s-2.1-2.1-2.1-1.3m6 5c0 .2.8 1 1.8 1.7 1.5 1.3 1.6 1.2.3-.4s-2.1-2.1-2.1-1.3m-48 1c0 .2.8 1 1.8 1.7 1.5 1.3 1.6 1.2.3-.4s-2.1-2.1-2.1-1.3m252 290.1V2266l4.3-.5c26.5-3 53.2-7 63-9.6l3.7-1v-228.8l-7.2-2.2c-9-2.7-41.1-14.4-53.2-19.3-5-2-9.4-3.6-9.8-3.6s-.8 59.6-.8 132.5m658.1-12.9c-.5 2.1-2.4 9.5-4.1 16.4-3.4 13.6-9.5 35.2-13.2 46.8l-2.3 7.3 82.4 82.4 82.5 82.4 8.5-6.7c16.6-12.8 43.1-35.1 43.1-36.2 0-.3-44.1-44.6-97.9-98.4l-97.9-97.9zm-347.6 77.7c-3 2.1-39.5 20.6-52.2 26.5l-11.3 5.2v263.8l6.8 1.1c15.1 2.5 57.9 6.7 58.8 5.8.2-.2.3-68.6.2-152.1-.3-151.4-.3-151.6-2.3-150.3m-514.5 45.2c1.3 1.4 2.6 2.5 2.8 2.5.3 0-.5-1.1-1.8-2.5s-2.6-2.5-2.8-2.5c-.3 0 .5 1.1 1.8 2.5m78.8 24.2c1.8.2 4.5.2 6 0s0-.4-3.3-.4-4.5.2-2.7.4m88 34c.6.2 1.8.2 2.5 0 .6-.3.1-.5-1.3-.5s-1.9.2-1.2.5m-23 1c1.2.2 3 .2 4 0 .9-.3-.1-.5-2.3-.4-2.2 0-3 .2-1.7.4m-37 1c2.3.2 5.9.2 8 0 2-.2.1-.4-4.3-.4s-6.1.2-3.7.4m-993.5 743c.9.2 2.5.2 3.5 0 .9-.3.1-.5-1.8-.5s-2.7.2-1.7.5m19 0c.9.2 2.5.2 3.5 0 .9-.3.1-.5-1.8-.5s-2.7.2-1.7.5m463.5 0c1.2.2 3 .2 4 0 .9-.3-.1-.5-2.3-.4-2.2 0-3 .2-1.7.4m19.5 0c.9.2 2.5.2 3.5 0 .9-.3.1-.5-1.8-.5s-2.7.2-1.7.5m-466.5 1c.7.3 1.6.2 1.9-.1.4-.3-.2-.6-1.3-.5-1.1 0-1.4.3-.6.6M3101.5 3268c0 117.4.1 165.5.2 106.7.2-58.7.2-154.7 0-213.5-.1-58.7-.2-10.6-.2 106.8m733-173.5c0 22 .1 30.9.2 19.7.2-11.2.2-29.2 0-40-.1-10.8-.2-1.7-.2 20.3m-2953.2 34.2c.9.2 2.3.2 3 0 .6-.3-.1-.5-1.8-.5-1.6 0-2.2.2-1.2.5m14 0c.9.2 2.3.2 3 0 .6-.3-.1-.5-1.8-.5-1.6 0-2.2.2-1.2.5m469 0c.9.2 2.3.2 3 0 .6-.3-.1-.5-1.8-.5-1.6 0-2.2.2-1.2.5m14 0c.9.2 2.3.2 3 0 .6-.3-.1-.5-1.8-.5-1.6 0-2.2.2-1.2.5m411.1 83.3c0 8.5.2 12 .3 7.7.2-4.2.2-11.2 0-15.5-.1-4.2-.3-.7-.3 7.8m-193.2 42c0 1.4.2 1.9.5 1.2.2-.6.2-1.8 0-2.5-.3-.6-.5-.1-.5 1.3m-930.8 14c0 5.8.1 8.1.3 5.2.2-2.8.2-7.6 0-10.5-.2-2.8-.3-.5-.3 5.3m88.9 0c0 4.1.2 5.8.4 3.7.2-2 .2-5.4 0-7.5-.2-2-.4-.3-.4 3.8m753 0c0 4.1.2 5.8.4 3.7.2-2 .2-5.4 0-7.5-.2-2-.4-.3-.4 3.8m88.9 14c0 1.4.2 1.9.5 1.2.2-.6.2-1.8 0-2.5-.3-.6-.5-.1-.5 1.3m-448.1 4.6c0 1.1.3 1.4.6.6.3-.7.2-1.6-.1-1.9-.3-.4-.6.2-.5 1.3m-482 5c0 1.1.3 1.4.6.6.3-.7.2-1.6-.1-1.9-.3-.4-.6.2-.5 1.3m2100.2 12.1c16.9.2 44.5.2 61.5 0 16.9-.1 3-.2-30.8-.2s-47.7.1-30.7.2m-241.8 137.8c0 22 .1 30.9.2 19.7.2-11.2.2-29.2 0-40-.1-10.8-.2-1.7-.2 20.3m-1639.2-33.8c2 .2 5.4.2 7.5 0 2-.2.3-.4-3.8-.4s-5.8.2-3.7.4m483.5 0c2.3.2 5.9.2 8 0 2-.2.1-.4-4.3-.4s-6.1.2-3.7.4m-484 82c2.8.2 7.6.2 10.5 0 2.8-.2.5-.3-5.3-.3s-8.1.1-5.2.3m482 0c2.8.2 7.6.2 10.5 0 2.8-.2.5-.3-5.3-.3s-8.1.1-5.2.3"/><path fill="#000" fill-opacity=".6" d="M2297.8 1011.7c.6.2 1.8.2 2.5 0 .6-.3.1-.5-1.3-.5s-1.9.2-1.2.5m61 0c.6.2 1.8.2 2.5 0 .6-.3.1-.5-1.3-.5s-1.9.2-1.2.5m-76 1c.7.3 1.6.2 1.9-.1.4-.3-.2-.6-1.3-.5-1.1 0-1.4.3-.6.6m-72.9 187.1-290.7 167.7-.6 12c-.3 6.6-.2 21.8.2 33.7l.7 21.6 207-119.5c113.9-65.7 209.3-121.2 212-123.4 27-21.4 65-47.7 93-64.4 32.2-19.2 74.2-40.4 109-54.9 16.2-6.8 36.2-16.4 37.1-17.8 1.2-1.9-22.9-9.7-52.1-16.9-13.2-3.2-24.2-5.9-24.5-5.9s-131.3 75.5-291.1 167.8m127.2 35.2c-8.6 7.6-18.7 17-22.5 20.8-5.7 5.9-6.5 7.1-5 7.5 1.1.4 149.1 26.5 328.9 58.2 179.9 31.6 328.9 57.9 331.2 58.4 4 .8 4.2.7 3.2-1.1-3.7-6.8-16.6-27.4-25-39.8l-9.8-14.6-282.8-49.8c-155.6-27.4-287.2-50.7-292.7-51.6l-9.8-1.8zm527.9 2.5c1.3 1.4 2.6 2.5 2.8 2.5.3 0-.5-1.1-1.8-2.5s-2.6-2.5-2.8-2.5c-.3 0 .5 1.1 1.8 2.5m-1085.1 14.2c-1.3 1.6-1.2 1.7.4.4s2.1-2.1 1.3-2.1c-.2 0-1 .8-1.7 1.7m1098.1-.3c0 .2.8 1 1.8 1.7 1.5 1.3 1.6 1.2.3-.4s-2.1-2.1-2.1-1.3m-991.8 90.6c0 1.4.2 1.9.5 1.2.2-.6.2-1.8 0-2.5-.3-.6-.5-.1-.5 1.3m-.9 21.5c0 2.2.2 3 .4 1.7.2-1.2.2-3 0-4-.3-.9-.5.1-.4 2.3m9.1 153.6c-1.9 2.4-166.7 288.3-167.1 289.9-.7 2.7 50.1 47 51.9 45.2.5-.5 31.6-54.1 69.2-119.2l68.3-118.3-2.4-8.1c-4.7-16.7-14.1-61-18-86-.6-3.8-1.1-4.6-1.9-3.5M1701 1782.4c0 .2.8 1 1.8 1.7 1.5 1.3 1.6 1.2.3-.4s-2.1-2.1-2.1-1.3m5.5 5.6c1 1.1 2 2 2.3 2s-.3-.9-1.3-2-2-2-2.3-2 .3.9 1.3 2m-21.5 24.5c1.9 1.9 3.6 3.5 3.9 3.5s-1-1.6-2.9-3.5-3.6-3.5-3.9-3.5 1 1.6 2.9 3.5m17 17c1.9 1.9 3.6 3.5 3.9 3.5s-1-1.6-2.9-3.5-3.6-3.5-3.9-3.5 1 1.6 2.9 3.5m194 288.1v150.7l28.8-.6c15.8-.4 32.2-1 36.5-1.3l7.7-.7v-265.2l-7.3-2.9c-11.1-4.5-39.8-17.6-53.4-24.5l-12.3-6.1zm709.1 81.6c-3.7 11.6-14.7 41.8-19.6 53.5l-4.4 10.8 65.7 65.7c36.1 36.2 66.1 65.8 66.5 65.8 1.4 0 28.3-17.5 44-28.8l14.9-10.5-81.9-81.9c-45-45-82-81.8-82.4-81.8-.3 0-1.5 3.3-2.8 7.2m-396.1 34c-8.9 4.2-30.6 13-47.5 19.4l-14 5.2-.5 111-.5 111 15.5 3.5c12.7 2.9 38.5 8.1 51.3 10.2l2.7.4V2362c0-72.6-.1-132-.2-131.9-.2 0-3.2 1.4-6.8 3.1m229 250.3c-4.1 4.1-7.2 7.5-6.9 7.5.2 0 3.8-3.4 7.9-7.5s7.2-7.5 6.9-7.5c-.2 0-3.8 3.4-7.9 7.5M1044.5 3106c1 1.1 2 2 2.3 2s-.3-.9-1.3-2-2-2-2.3-2 .3.9 1.3 2m165.5 3.5c-2.4 2.5-4.2 4.5-3.9 4.5s2.5-2 4.9-4.5 4.2-4.5 3.9-4.5-2.5 2-4.9 4.5m-422 254.9c0 .2.8 1 1.8 1.7 1.5 1.3 1.6 1.2.3-.4s-2.1-2.1-2.1-1.3m195.5 4.8-4 4.3 4.3-4c3.9-3.6 4.7-4.5 3.9-4.5-.2 0-2.1 1.9-4.2 4.2m225.5 56.2c0 .2.8 1 1.8 1.7 1.5 1.3 1.6 1.2.3-.4s-2.1-2.1-2.1-1.3m-170.1 9.3c-1.3 1.6-1.2 1.7.4.4s2.1-2.1 1.3-2.1c-.2 0-1 .8-1.7 1.7"/><path fill="#000" fill-opacity=".7" d="M2169 1158.8c-226 130.5-245.4 141.9-246.1 144.7-2.2 8.9-5.1 63.5-3.4 63.5.5 0 131.2-75.3 290.6-167.3 206.2-119 289.3-167.4 288.1-167.9-4.1-1.8-54.1-10.7-80.2-14.3-3.2-.4-25.3 12.2-249 141.3m463.8-78.1c1.2.2 3 .2 4 0 .9-.3-.1-.5-2.3-.4-2.2 0-3 .2-1.7.4m-242.9 111.7c-15.1 11.2-35.9 27.8-35.9 28.6 0 .6 582.1 103.3 582.6 102.7.6-.6-21.9-30.1-33.3-43.7-6.9-8.2-11.1-12.4-12.2-12.2-1.3.2-477.9-83.3-486.1-85.2-.9-.1-7.7 4.2-15.1 9.8m450.1 19.9c0 .2 1.5 1.6 3.3 3.3l3.2 2.9-2.9-3.3c-2.8-3-3.6-3.7-3.6-2.9m35 36.1c0 .2.8 1 1.8 1.7 1.5 1.3 1.6 1.2.3-.4s-2.1-2.1-2.1-1.3m-1092.7 331.3c-56.3 97.4-102.3 177.4-102.3 177.8 0 1.2 18.6 21.8 33.1 36.8l13.4 13.7 84.3-146.2 84.3-146.3-3-24c-2.7-21.2-3.9-35.2-6.8-78l-.8-11zm-200.2 171.9c0 1.1.3 1.4.6.6.3-.7.2-1.6-.1-1.9-.3-.4-.6.2-.5 1.3m1 14c0 1.1.3 1.4.6.6.3-.7.2-1.6-.1-1.9-.3-.4-.6.2-.5 1.3m124.4 69.4c1 1.1 2 2 2.3 2s-.3-.9-1.3-2-2-2-2.3-2 .3.9 1.3 2m117.5 261.8v169.9l20.3.6c11.1.4 27.1.7 35.5.7h15.2v-300.8l-13.2-7c-13.3-7-33-18.4-48.6-28-4.6-2.9-8.5-5.2-8.8-5.2-.2 0-.4 76.4-.4 169.8m301.1 168.1c-11.2 3.8-26.1 8.3-33 10.1l-12.6 3.4.5 90.6.5 90.5 12.5 4.3c13.8 4.8 49.3 15.2 51.5 15.2 1.3 0 1.5-14.5 1.5-110.5 0-60.8-.1-110.5-.2-110.4-.2.1-9.5 3.1-20.7 6.8m453.9 1.7c-2.7 7.2-12.1 27.4-20.5 44.1l-9.2 18.1 50.1 50.1 50.1 50 20-10.2c15.1-7.8 39.4-21.1 42.2-23.1.1-.1-29.4-29.8-65.7-66.1l-65.9-65.9zm-644.2 35.1c.6.2 1.8.2 2.5 0 .6-.3.1-.5-1.3-.5s-1.9.2-1.2.5m-20.5 1c.9.2 2.5.2 3.5 0 .9-.3.1-.5-1.8-.5s-2.7.2-1.7.5m-50.5 1c.7.3 1.6.2 1.9-.1.4-.3-.2-.6-1.3-.5-1.1 0-1.4.3-.6.6m21 0c1.2.2 3 .2 4 0 .9-.3-.1-.5-2.3-.4-2.2 0-3 .2-1.7.4m-999 743c1.7.2 4.7.2 6.5 0 1.7-.2.3-.4-3.3-.4s-5 .2-3.2.4m482 0c1.7.2 4.7.2 6.5 0 1.7-.2.3-.4-3.3-.4s-5 .2-3.2.4m-20 1c.7.3 1.6.2 1.9-.1.4-.3-.2-.6-1.3-.5-1.1 0-1.4.3-.6.6m374.4 7c10.8.2 28.8.2 40 0 11.2-.1 2.3-.2-19.7-.2s-31.1.1-20.3.2m277.3.5c-.8 2.2-1 283.8-.2 283.8.4 0 .7-63.9.7-142v-142l42.8-.3 42.7-.2-42.8-.3c-33.5-.1-42.9.1-43.2 1m213 0c-.3.7-.4 96.9-.3 213.8l.3 212.5h310l-154.7-.2-154.8-.3v-426h84l.3 173.2.2 173.3v-347l-42.3-.3c-33.3-.2-42.4 0-42.7 1m558.3-.5c14.4.2 38 .2 52.5 0 14.4-.1 2.6-.2-26.3-.2s-40.7.1-26.2.2m408.5 0c43.4.2 114 .2 157 0 43-.1 7.6-.2-78.8-.2-86.3 0-121.5.1-78.2.2m304.2.6c-.3.6-.4 18.8-.2 40.2l.2 39 .3-39.7.2-39.8 174.8-.3 174.7-.2-174.8-.3c-139.2-.1-174.9.1-175.2 1.1m-2584.7 73.4c.7.3 1.6.2 1.9-.1.4-.3-.2-.6-1.3-.5-1.1 0-1.4.3-.6.6m460 0c.7.3 1.6.2 1.9-.1.4-.3-.2-.6-1.3-.5-1.1 0-1.4.3-.6.6m23 0c.7.3 1.6.2 1.9-.1.4-.3-.2-.6-1.3-.5-1.1 0-1.4.3-.6.6m1803.7 52.8c0 26.9.1 37.8.2 24.2.2-13.7.2-35.7 0-49-.1-13.3-.2-2.2-.2 24.8M1148.2 3253c0 1.4.2 1.9.5 1.2.2-.6.2-1.8 0-2.5-.3-.6-.5-.1-.5 1.3m-394 5c0 1.4.2 1.9.5 1.2.2-.6.2-1.8 0-2.5-.3-.6-.5-.1-.5 1.3m753 0c0 1.4.2 1.9.5 1.2.2-.6.2-1.8 0-2.5-.3-.6-.5-.1-.5 1.3m89.1 4c0 3 .2 4.3.4 2.7.2-1.5.2-3.9 0-5.5-.2-1.5-.4-.2-.4 2.8m-360.1 6c0 1.9.2 2.7.5 1.7.2-.9.2-2.5 0-3.5-.3-.9-.5-.1-.5 1.8m360.1 6.5c0 2.7.2 3.8.4 2.2.2-1.5.2-3.7 0-5-.2-1.2-.4 0-.4 2.8m-842.1 2.5c0 1.4.2 1.9.5 1.2.2-.6.2-1.8 0-2.5-.3-.6-.5-.1-.5 1.3m753 1c0 1.4.2 1.9.5 1.2.2-.6.2-1.8 0-2.5-.3-.6-.5-.1-.5 1.3m-359 5c0 1.4.2 1.9.5 1.2.2-.6.2-1.8 0-2.5-.3-.6-.5-.1-.5 1.3m2038.5 25.7c-.4.3-.7 39.3-.7 86.5v85.8l-41.7.3-41.8.2h84l.3-86.2.2-86.3 107.3-.3 107.2-.2-107.1-.3c-58.9-.1-107.4.1-107.7.5m-2307.9 99c.7.3 1.6.2 1.9-.1.4-.3-.2-.6-1.3-.5-1.1 0-1.4.3-.6.6m19 0c.7.3 1.6.2 1.9-.1.4-.3-.2-.6-1.3-.5-1.1 0-1.4.3-.6.6m464 0c.7.3 1.6.2 1.9-.1.4-.3-.2-.6-1.3-.5-1.1 0-1.4.3-.6.6m19 0c.7.3 1.6.2 1.9-.1.4-.3-.2-.6-1.3-.5-1.1 0-1.4.3-.6.6m344.5 74c12 .2 31.4.2 43 0 11.7-.1 1.9-.2-21.8-.2-23.6 0-33.2.1-21.2.2m300.5 0c11.1.2 29.3.2 40.5 0 11.1-.1 2-.2-20.3-.2s-31.4.1-20.2.2m576 0c12.2.2 32.2.2 44.5 0 12.2-.1 2.2-.2-22.3-.2s-34.5.1-22.2.2m346 0c12.8.2 33.5.2 46 0 12.5-.1 2-.2-23.3-.2s-35.5.1-22.7.2m690.5 0c12 .2 31.4.2 43 0 11.7-.1 1.9-.2-21.8-.2-23.6 0-33.2.1-21.2.2m-2770.5 7c.7.3 1.6.2 1.9-.1.4-.3-.2-.6-1.3-.5-1.1 0-1.4.3-.6.6m42 0c.7.3 1.6.2 1.9-.1.4-.3-.2-.6-1.3-.5-1.1 0-1.4.3-.6.6m483 0c.7.3 1.6.2 1.9-.1.4-.3-.2-.6-1.3-.5-1.1 0-1.4.3-.6.6"/><path fill="#000" fill-opacity=".9" d="M2298 1011.7c-39.9 2.7-87.1 8.3-117.6 14l-14.1 2.6-102.4 59.1-102.4 59.2-7.8 24.4c-8 25.2-15.8 52.2-15.1 52.9.3.4 366.1-210.4 367.9-212 .5-.5-.1-.8-1.5-.7s-4.5.3-7 .5m221 105.1c-15.8 7-50.3 24.2-52.3 26.1-.5.5.9 1.1 3 1.5 2.1.3 85.2 14.9 184.8 32.5 99.5 17.6 181.1 31.9 181.2 31.7.3-.3-19.6-17.8-33.2-29.2-14.9-12.5-37.1-29.3-40.8-30.9-1.5-.6-2.5-1.4-2.1-1.7.3-.4-.2-.4-1.3-.2-1 .3-50.5-8.1-110-18.5-59.5-10.5-109-19.1-110-19.1-1 .1-9.7 3.6-19.3 7.8m-592.7 12.6c-2.6.9-11.4 7.1-24.5 17.4-11.1 8.9-26.2 20.7-33.4 26.4s-13.2 10.7-13.3 11.3c-.1.5-57.8 100.9-128.3 223s-128.3 222.9-128.6 224.1c-.5 2.6 6.8 16.6 22 41.9 12.6 21.1 14.5 24.1 15.2 23.4.2-.2 59.8-103.4 132.5-229.3l132.2-228.9 4-16.1c3-12.2 23.9-85.7 26.4-93.4.2-.6.3-1.2.2-1.1-.1 0-2.1.6-4.4 1.3m-121.9 97.8-2.9 3.3 3.3-2.9c3-2.8 3.7-3.6 2.9-3.6-.2 0-1.6 1.5-3.3 3.2m-14.5 14.5-3.4 3.8 3.8-3.4c3.4-3.3 4.2-4.1 3.4-4.1-.2 0-1.9 1.7-3.8 3.7M1675 1802.4c0 .2.8 1 1.8 1.7 1.5 1.3 1.6 1.2.3-.4s-2.1-2.1-2.1-1.3m5 162.1v156.9l5.7 9.6c14.7 24.7 32.2 50.5 53.1 78.5 5.8 7.7 10.9 14.4 11.3 15 .5.5.9-77.2.9-175.2v-176.1l-16.7-14.3c-12.9-11.1-38-34.7-53.5-50.5-.5-.4-.8 69.9-.8 156.1m320 330.7c-11.9 1.8-32.8 4.2-46.3 5.4l-7.7.6.2 47.1.3 47.2 11 6.4c13.8 8 53.5 28.5 54.1 27.9.2-.3.3-31.1.2-68.4l-.3-68zm-168 15.2c0 .2.8 1 1.8 1.7 1.5 1.3 1.6 1.2.3-.4s-2.1-2.1-2.1-1.3m673 91.7c-4.1 6-13 18-19.7 26.7-6.7 8.6-12.3 15.9-12.3 16.2s7.8 8.4 17.4 17.9l17.5 17.4 10.8-2.8c10.6-2.7 45.5-13.8 56.2-17.7l5.4-2-33.4-33.4c-18.4-18.4-33.6-33.4-33.9-33.4-.3.1-3.9 5-8 11.1M732.9 3104.7c-1.3 1.6-1.2 1.7.4.4s2.1-2.1 1.3-2.1c-.2 0-1 .8-1.7 1.7m800.6 5.3c2.7 2.7 5.1 5 5.4 5s-1.7-2.3-4.4-5c-2.7-2.8-5.1-5-5.4-5s1.7 2.2 4.4 5m-811.6 5.7c-1.3 1.6-1.2 1.7.4.4s2.1-2.1 1.3-2.1c-.2 0-1 .8-1.7 1.7m260.1 49.5c4.1 4.5 5 5.3 5 4.5 0-.2-2.1-2.3-4.7-4.7l-4.8-4.5zm220 252.2c0 .2.8 1 1.8 1.7 1.5 1.3 1.6 1.2.3-.4s-2.1-2.1-2.1-1.3m-474.5 8.6c3.3 3.3 6.2 6 6.4 6 .3 0-2.1-2.7-5.4-6s-6.2-6-6.4-6c-.3 0 2.1 2.7 5.4 6m805.9.2-2.9 3.3 3.3-2.9c1.7-1.7 3.2-3.1 3.2-3.3 0-.8-.8-.1-3.6 2.9"/><path fill="#000" fill-opacity=".8" d="M2123.5 1117.6c-101.2 58.5-184.3 106.5-184.7 106.6-1.4.6-16.7 75.6-15.5 76.3.3.2 490.5-283 490.3-283.2-.5-.5-34.4-4.2-47.5-5.3-7.4-.5-23.6-1-36-.9l-22.6.1zm-136.6-18.9-3.4 3.8 3.8-3.4c3.4-3.3 4.2-4.1 3.4-4.1-.2 0-1.9 1.7-3.8 3.7m465.2 52.4c-7.3 4.3-21.2 13.1-30.9 19.6l-17.7 11.7 242.5 42.7c133.4 23.5 243.5 43 244.8 43.2 1.2.2 2.2.3 2.2.1 0-1.5-38.5-42.7-48-51.3l-8.9-8.1-184.3-32.5c-101.4-17.9-184.7-32.7-185.3-32.9-.5-.2-7 3.2-14.4 7.5m376.9 51.3c0 .2.8 1 1.8 1.7 1.5 1.3 1.6 1.2.3-.4s-2.1-2.1-2.1-1.3m-1020.1 20.3c-1.3 1.6-1.2 1.7.4.4.9-.7 1.7-1.5 1.7-1.7 0-.8-.8-.3-2.1 1.3m-39.9 243c-71.7 124.2-131.2 227.2-132.2 228.9l-1.8 3.1 8.1 11.9c4.5 6.5 10.4 14.8 13.2 18.4 17.3 22.2 23.1 29 23.7 28.3.5-.4 46.7-80.4 102.9-177.7l102.1-176.9V1384c0-40.7 4.8-91.6 12.4-131.2 1.3-6.7 2.3-12.4 2.2-12.6-.2-.1-58.9 101.4-130.6 225.5m15.4-218.5-1.9 2.3 2.3-1.9c1.2-1.1 2.2-2.1 2.2-2.3 0-.8-.8-.2-2.6 1.9m-12.5 13.5c-1.3 1.6-1.2 1.7.4.4.9-.7 1.7-1.5 1.7-1.7 0-.8-.8-.3-2.1 1.3m-92.4 546.3c1 1.1 2 2 2.3 2s-.3-.9-1.3-2-2-2-2.3-2 .3.9 1.3 2m31.5 31.4c0 .2.8 1 1.8 1.7 1.5 1.3 1.6 1.2.3-.4s-2.1-2.1-2.1-1.3m40 211 .5 177.2 5.1 6.4c16.5 20.8 35.8 31.4 60.7 33.6l7.7.7v-340.8l-12.2-8c-12.8-8.4-43.4-30.8-55.3-40.5l-7-5.7zm315.5 232.6c-6 1.5-20.8 4.7-32.7 7.1l-21.8 4.3v137.4l14.8 6.5c13.2 5.9 52.3 21.7 53.7 21.7.3 0 .5-40.5.5-90 0-85.1-.1-90-1.7-89.9-1 .1-6.7 1.4-12.8 2.9m477.7 58c-5.2 9.2-21.3 35.5-29.1 47.5l-2 3.1 33.7 33.7 33.7 33.7 16.5-6.3c16.2-6.3 50.8-21.2 52.2-22.6.4-.3-21.7-23.1-49.1-50.5l-49.8-49.8zm-97.3 134.7c-1.3 1.6-1.2 1.7.4.4s2.1-2.1 1.3-2.1c-.2 0-1 .8-1.7 1.7M1526 3102.4c0 .2.8 1 1.8 1.7 1.5 1.3 1.6 1.2.3-.4s-2.1-2.1-2.1-1.3m13 13c0 .2.8 1 1.8 1.7 1.5 1.3 1.6 1.2.3-.4s-2.1-2.1-2.1-1.3m-260.6 47.8-1.9 2.3 2.3-1.9c1.2-1.1 2.2-2.1 2.2-2.3 0-.8-.8-.2-2.6 1.9m-6 6-1.9 2.3 2.3-1.9c2.1-1.8 2.7-2.6 1.9-2.6-.2 0-1.2 1-2.3 2.2m3.1 200.8c2.1 2.2 4.1 4 4.4 4s-1.3-1.8-3.4-4-4.1-4-4.4-4 1.3 1.8 3.4 4m262.9 51.2-1.9 2.3 2.3-1.9c2.1-1.8 2.7-2.6 1.9-2.6-.2 0-1.2 1-2.3 2.2m-492.9 7-5 5.3 5.3-5c4.8-4.6 5.7-5.5 4.9-5.5-.1 0-2.5 2.4-5.2 5.2m483.4 2.5c-1.3 1.6-1.2 1.7.4.4.9-.7 1.7-1.5 1.7-1.7 0-.8-.8-.3-2.1 1.3"/><path fill="#000" d="M2145.5 1033.5c-21 5.4-38.3 10.7-62.3 19.1s-58.8 22.2-68.2 26.9c-20.6 10.3-34.9 24.3-44.3 43-3.8 7.7-8.9 21.3-8.5 22.6.2.7 199.7-113.6 201.6-115.5 1-1-1-.6-18.3 3.9m478 48.1c-29.3 7.2-87.1 26-83.7 27.2 1.9.6 220.7 39 221 38.8.5-.6-37.5-25.1-52.8-34-9.1-5.3-26.5-14.7-38.8-20.9l-22.2-11.2-10.8-.2c-5.9-.1-11.6.1-12.7.3M1838 1197.9c-70.4 59-130.6 135.3-171.9 217.8-25 50-37.9 86.3-61.6 173.5-7.9 29.1-8.6 32.2-7.8 37l.8 5.2 72.2-124.9c39.6-68.8 97.8-169.4 129.1-223.8 31.4-54.3 56.7-98.7 56.4-98.7-.4 0-8.1 6.3-17.2 13.9m-251 489.6c0 .5-.9 8.6-2 18-3.3 28.5-3.3 33.9-1.1 64 4.1 54.4 7.7 86.1 12.6 113 11.3 61.4 30.8 127.1 52.5 177 5.5 12.7 24.3 50.3 28.5 57l2.4 4 .1-156.5v-156.5l-8.6-9.5c-26.4-29.1-50.9-61.5-70.7-93.6-5.5-8.8-13.6-18.9-13.7-16.9m238.4 613.7c-.8 2.6 2.5 5.9 27.6 27 25.3 21.3 56.8 44.2 84.8 61.7l8.2 5.1v-94.2l-5.2.6c-10.7 1.2-66.6 2.8-75.3 2.2-4.9-.4-15.5-1.6-23.4-2.7-17.5-2.3-15.8-2.3-16.7.3m638.1 155c-4.9 6.1-14.3 16.6-20.8 23.3-8.2 8.6-11.5 12.8-11.1 13.9.3.9 1.2 1.6 2 1.6 4 0 73.4-14.2 73.4-15 0-.3-7.8-8.2-17.2-17.6l-17.3-17.2zM859 3048.4c-16.9 2.2-31.5 5.5-47.5 10.7C721.8 3088.5 666 3168.7 666 3268c0 37.3 7.7 71.5 23 102.8 11.6 23.6 23 39.2 42.7 58.2 40.4 39.1 95.4 60 157.8 60 63.8 0 119.4-22.6 160.1-65.1 8.1-8.6 19.4-22.8 19.4-24.5-.1-1-66.6-48.9-67.9-48.9-.5 0-3.5 3.4-6.8 7.5-19.9 25.1-46.6 41.2-78.9 47.7-13.4 2.7-41.5 2.4-55.1-.5-40-8.6-70.8-31.2-89.2-65.4-18.6-34.4-22.2-82.4-9.1-121.9 4.5-13.7 8.2-21.3 15.8-32.9 18.5-28 48.6-47.6 83.9-54.7 12.4-2.5 42.5-2.5 54.3 0 18.5 3.9 35.2 10.9 49.7 20.9 9.1 6.3 23 19.8 29.3 28.6 2.4 3.4 4.7 6.2 5.1 6.2.5 0 70.6-42.5 71.8-43.6.6-.6-4.8-9.1-11.2-17.6-7.9-10.5-22.8-25.5-33.5-33.6-28-21.3-60-34.9-97.7-41.3-15.5-2.7-54.5-3.5-70.5-1.5m485-.3c-68.2 7.9-124.2 40.9-159.3 93.9-14.1 21.3-25.8 49.2-31 74.5-4.1 19.6-5.1 29.9-5.1 51.5 0 11.3.6 24.8 1.3 30 7.1 52 27.9 95.2 62.1 129.1 32.1 31.7 73.4 51.7 123.2 59.6 16.1 2.5 57.5 2.5 73.8 0 48.6-7.6 88.9-26.7 120.9-57.2 39.9-38 63.2-89.9 65.9-146.9 2.8-57.2-10.2-104.2-40.8-147.9-8.5-12.2-33.5-37.1-46-45.9-31.6-22.3-67-35.7-106.6-40.3-14-1.6-45.8-1.8-58.4-.4m58.7 82.8c26.8 5.9 48.1 17.2 66.3 35.4 18.4 18.5 30.4 42.1 36.2 71 2.9 14.8 3.1 44 .4 59.2-2.1 11.7-8.1 30.5-12.6 39.6-18.2 36.2-49.9 60.2-91.3 69.1-13.8 2.9-42.7 3.2-56.2.5-24.3-4.8-41.1-12.3-59.1-26.3-34.7-26.9-53.1-73.3-49.3-124.2 5.1-68.4 49.7-117.3 115.1-126.1 11.6-1.6 39.7-.6 50.5 1.8M1704 3268v213h85v-142c0-78.1.3-142 .8-142 .4.1 49.1 63.8 108.2 141.8l107.6 141.7 40.2.3 40.2.2v-426h-85v142c0 78.1-.3 142-.8 142-.4 0-49.3-63.9-108.7-142l-108-142H1704zm510 0v213h310v-79h-226v-347h-84zm531.7-211.8c-.2.7-37.2 95.8-82.2 211.3s-82 210.8-82.3 211.7c-.4 1.7 2.1 1.8 43.4 1.8h43.9l18.5-49.5 18.4-49.5h91.6l91.5.1 18.4 49.4 18.4 49.5h45c42.3 0 44.9-.1 44.4-1.8-.2-.9-36.1-93.3-79.7-205.2s-80.6-207-82.2-211.3l-3-7.7H2798c-40.5 0-51.9.3-52.3 1.2m82 163.6c16.6 44.4 30.5 81.5 30.9 82.5.6 1.6-3.3 1.7-61.6 1.7-49.3 0-62.1-.3-61.8-1.3 4.5-12.7 61.5-163.7 61.8-163.7s14.1 36.4 30.7 80.8M3102 3268v213h84v-173h215v-78h-215v-97h229v-78h-313zm383-173.5v39.5h132v347h85v-347h132v-79h-349z"/></svg>